<svg width="800" height="800" viewBox="0 0 800 800" fill="none" xmlns="http://www.w3.org/2000/svg">
<path d="M748.185 171.094C739.024 164.206 727.147 162.042 716.145 165.252C695.953 171.142 675.359 174.13 654.928 174.13C596.277 174.13 538.194 156.947 495.578 126.991C457.944 100.538 436.364 67.5047 436.364 36.3656C436.364 16.2813 420.083 0 400 0C388.703 0 378.611 5.15156 371.939 13.2344C368.974 16.8266 366.686 20.9969 365.27 25.5516C364.208 28.9656 363.636 32.5984 363.636 36.3641C363.636 67.5031 342.055 100.536 304.422 126.989C301.758 128.861 299.036 130.684 296.255 132.456C254.544 159.028 200.058 174.13 145.072 174.13C124.638 174.13 104.044 171.144 83.8579 165.252C81.1064 164.448 78.3017 163.981 75.4986 163.841C67.0861 163.419 58.6892 165.928 51.8157 171.094C43.7986 177.123 38.6814 186.148 37.5439 195.991C37.3814 197.397 37.3017 198.82 37.3032 200.253C37.4407 254.644 44.2626 305.77 55.1236 352.803C56.3314 358.03 57.5861 363.206 58.8907 368.328C68.0111 404.195 79.397 437.528 91.8064 467.938C93.5782 472.281 95.372 476.566 97.1829 480.791C100.805 489.239 104.494 497.442 108.225 505.394C110.089 509.369 111.966 513.283 113.847 517.131C134.542 559.464 156.005 594.02 173.403 619.281C175.617 622.494 177.844 625.678 180.089 628.833C182.335 631.986 184.594 635.117 186.87 638.212C193.695 647.505 200.65 656.528 207.706 665.248C210.058 668.155 212.422 671.03 214.797 673.869C219.544 679.547 224.335 685.088 229.156 690.48C236.391 698.567 243.697 706.325 251.05 713.716C263.305 726.036 275.684 737.342 288.064 747.492C294.452 752.731 301.509 758.192 309.049 763.527C310.125 764.288 311.213 765.047 312.309 765.803C314.502 767.316 316.731 768.811 318.994 770.286C343.881 786.505 372.775 800 400 800C439.597 800 482.727 771.447 511.934 747.494C551.542 715.011 591.188 670.677 626.591 619.28C677.209 545.794 762.203 393.634 762.695 200.25C762.722 188.788 757.345 177.983 748.185 171.094Z" fill="#FDB414"/>
<path d="M261.927 545.903H400V407.828C323.745 407.828 261.927 469.641 261.927 545.903Z" fill="#FFE465"/>
<path d="M538.073 545.903C538.073 469.641 476.255 407.828 400 407.828V545.903H538.073Z" fill="#FFE465"/>
<path d="M488.764 319.064C488.764 270.041 449.02 230.303 400 230.303V407.828C449.02 407.828 488.764 368.088 488.764 319.064Z" fill="#FFE465"/>
<path d="M311.236 319.064C311.236 368.088 350.981 407.825 400 407.825V230.303C350.98 230.303 311.236 270.041 311.236 319.064Z" fill="#FFE465"/>
<path d="M261.926 545.903C261.926 469.641 323.745 407.828 400 407.828C350.98 407.828 311.236 368.088 311.236 319.067C311.236 270.042 350.98 230.303 400 230.303V0C379.917 0 363.636 16.2813 363.636 36.3641C363.636 67.5031 342.055 100.536 304.422 126.989C261.806 156.945 203.723 174.128 145.072 174.128C124.637 174.128 104.044 171.142 83.8577 165.25C72.8562 162.041 60.978 164.203 51.8171 171.092C42.6562 177.981 37.2796 188.787 37.3077 200.248C37.7968 393.633 122.792 545.791 173.409 619.278C208.812 670.675 248.459 715.009 288.066 747.492C317.27 771.447 360.4 800 400 800V545.903H261.926Z" fill="#EAB139"/>
</svg>
