<svg width="414" height="508" viewBox="0 0 414 508" fill="none" xmlns="http://www.w3.org/2000/svg">
<g clip-path="url(#clip0_326_5528)">
<path d="M419 447.5C419 592.475 306.847 710 168.5 710C30.1527 710 -82 592.475 -82 447.5C-82 302.525 30.1527 185 168.5 185C306.847 185 419 302.525 419 447.5Z" fill="url(#paint0_linear_326_5528)"/>
<g clip-path="url(#clip1_326_5528)">
<path d="M184.641 181.944L204.298 183.816C205.707 183.95 207.021 183.071 207.455 181.695L220.853 139.314C221.447 137.435 220.181 135.484 218.255 135.296L198.598 133.423C197.189 133.29 195.875 134.174 195.441 135.544L182.043 177.925C181.449 179.81 182.715 181.762 184.641 181.944Z" fill="#050505"/>
<path d="M215.467 139.211C215.467 139.901 216.02 140.465 216.697 140.465C217.375 140.465 217.928 139.908 217.928 139.211C217.928 138.52 217.375 137.956 216.697 137.956C216.014 137.962 215.467 138.52 215.467 139.211Z" fill="white"/>
<path d="M146.36 192.943L170.166 180.992L183.903 201.592C191.999 188.798 195.423 180.992 195.423 180.992L193.04 168.459C192.493 165.58 194.431 162.829 197.284 162.441L208.132 159.398L197.498 151.841C196.208 150.926 195.697 149.235 196.255 147.738C197.04 145.629 199.549 144.823 201.373 146.083L214.95 156.041C216.05 156.847 216.697 158.144 216.697 159.52V165.126C214.243 181.798 205.374 186.277 205.374 186.277C205.374 186.277 201.035 203.713 199.786 213.792C198.693 222.616 191.322 239.64 185.342 241.858C181.793 243.173 175.136 240.84 171.932 235.301L146.36 192.943Z" fill="#F0A76E"/>
<path d="M48.8338 199.295L15.2136 177.914C14.5181 177.471 14.3219 176.526 14.7856 175.841L38.9843 139.835C42.7173 134.278 48.0849 130.078 54.3144 127.829C57.655 126.623 61.174 126.011 64.7107 126.011H92.3987L128.64 127.563L138.763 130.338C148.149 133.544 155.996 140.26 160.721 149.126L176.669 179.041C176.913 179.502 176.741 180.077 176.283 180.314L152.191 192.968C152.536 196.732 156.525 295.531 156.525 295.531H61.4058L63.3198 217.962L61.2096 185.726L50.7063 198.98C50.2545 199.55 49.452 199.689 48.8338 199.295Z" fill="#FFE465"/>
<path d="M61.4117 295.524L63.3258 217.955L61.2156 185.719C61.2156 185.719 66.1433 179.883 66.3216 174.392C66.6188 165.356 69.0738 129.847 57.6609 126.853C57.8036 126.823 57.9403 126.793 58.083 126.762C60.2586 126.278 62.4757 126.005 64.7108 126.005H72.0459C82.4066 126.005 82.9475 168.229 82.9475 168.229L139.102 165.877C139.102 165.877 138.008 153.92 135.827 145.483C133.645 137.047 128.64 127.556 128.64 127.556L134.163 129.072C142.948 141.471 150.836 163.956 152.197 192.962C152.381 196.865 153.006 205.107 153.006 205.125C153.012 205.253 156.519 257.3 156.519 295.246C156.519 333.191 152.025 509.946 152.025 509.946C151.9 515.777 147.228 520.443 141.51 520.443H114.244C108.567 520.443 103.919 515.855 103.728 510.074L100.524 411.426L82.9415 510.074C82.7513 515.855 78.103 520.443 72.4263 520.443H45.1603C39.4361 520.443 34.764 515.783 34.6451 509.946L61.4117 295.524Z" fill="#151816"/>
<path d="M19.0238 180.337L2.33848 214.804C-0.265066 220.979 0.995096 228.149 5.54834 233.016L55.7945 286.779C58.8795 289.815 63.7478 289.882 66.9101 286.936L69.6385 284.397H77.5264C78.5012 284.397 79.4107 283.9 79.9516 283.07C81.188 281.179 79.9695 278.627 77.7463 278.452L69.4601 277.815L82.3234 277.003C82.3234 277.003 85.0042 276.373 85.0042 274.53C85.0042 272.688 83.5835 272.167 82.2164 272.185L70.7263 272.349L82.1629 270.518C83.5835 270.294 84.6297 269.046 84.6297 267.579V267.518C84.6297 265.882 83.3339 264.555 81.7349 264.543L71.3682 264.47L72.9137 259.373L82.5552 257.015C83.8629 256.694 84.701 255.385 84.4573 254.034C84.2077 252.64 82.8999 251.712 81.5268 251.955L71.4633 253.737C70.8332 253.846 70.2923 254.264 70.013 254.852L62.7313 270.221L26.4778 217.604L42.9967 195.574L19.0238 180.337Z" fill="#F0A76E"/>
<path d="M82.8584 49.8905C83.1021 48.1753 83.4766 46.4602 83.9997 44.7511C89.8666 25.7271 111.61 14.8181 132.57 20.3938C144.077 23.4544 152.946 30.8543 157.642 40.0481C174.833 42.7451 186.668 49.345 187.809 58.4176C189.687 73.2538 162.231 89.0779 126.489 93.7566C90.7463 98.4354 60.2586 90.1991 58.3922 75.3629C57.2509 66.3266 66.9934 56.9207 82.8584 49.8905Z" fill="black"/>
<path d="M93.5222 110.132L93.7362 98.2293C93.0883 95.896 92.6127 93.5202 92.2799 91.1687C91.8459 91.3445 91.3942 91.4475 90.9305 91.4475C87.9168 91.4475 85.4797 87.5385 85.4797 82.7082C85.4797 77.878 87.9228 73.9689 90.9305 73.9689C91.2218 73.9689 91.5071 74.0174 91.7924 74.0901C92.0896 69.8235 92.5771 67.0538 92.5771 67.0538C92.8624 65.3569 93.3379 63.7448 93.9264 62.1872C102.45 58.3267 119.79 52.5631 139.346 57.9145C144.773 59.3994 148.482 60.46 151.08 61.5145C153.327 66.4478 154.141 72.0235 153.178 77.6962C153.178 77.6962 147.697 118.041 122.458 120.162C122.435 122.678 122.589 124.805 123.261 125.999C123.326 126.114 128.646 127.55 128.646 127.55C128.646 127.55 132.629 155.186 108.163 155.186C83.6965 155.186 88.0654 125.999 88.0654 125.999C88.0654 125.999 93.8551 119.69 93.5222 110.132Z" fill="#F0A76E"/>
<path d="M91.4417 86.2902C91.6379 86.3266 91.84 86.2902 92.0183 86.175C92.3393 85.975 92.482 85.5751 92.369 85.2114L90.2172 78.2782C90.0805 77.8357 89.6169 77.5933 89.1829 77.7327C88.749 77.8721 88.5112 78.3448 88.648 78.7872L89.8249 82.5811L88.5707 81.3509C88.2438 81.0296 87.7207 81.0418 87.4056 81.3751C87.0906 81.7084 87.1025 82.2418 87.4294 82.563L91.0137 86.072C91.1326 86.1872 91.2812 86.2599 91.4417 86.2902Z" fill="#3A222B"/>
<path d="M136.683 89.0901C136.386 90.8356 137.236 92.4416 138.573 92.678C139.911 92.9143 141.236 91.6901 141.533 89.9447C141.831 88.1992 140.981 86.5932 139.643 86.3568C138.306 86.1205 136.98 87.3447 136.683 89.0901Z" fill="#3A222B"/>
<path d="M114.131 83.8597C113.833 85.6051 114.683 87.2112 116.021 87.4475C117.358 87.6839 118.684 86.4596 118.981 84.7142C119.278 82.9688 118.428 81.3627 117.091 81.1264C115.753 80.89 114.428 82.1142 114.131 83.8597Z" fill="#3A222B"/>
<path d="M125.841 95.6655C125.87 95.6534 125.894 95.6352 125.924 95.617C127.469 94.6292 128.218 93.5383 128.153 92.3868C128.052 90.6534 126.126 89.6838 125.906 89.5807C125.496 89.3868 125.008 89.5625 124.812 89.9807C124.616 90.3989 124.795 90.8959 125.205 91.0959C125.615 91.2959 126.477 91.9019 126.506 92.4898C126.536 92.9686 126.013 93.5746 125.044 94.1928C124.658 94.4413 124.545 94.9564 124.783 95.3504C125.014 95.7201 125.472 95.8473 125.841 95.6655Z" fill="#3A222B"/>
<path d="M147.103 83.2899C147.359 83.3323 147.638 83.2535 147.834 83.0474C148.149 82.7141 148.143 82.1868 147.822 81.8596C147.626 81.6656 142.96 77.1202 137.432 79.4354C137.01 79.6111 136.814 80.102 136.986 80.5323C137.158 80.9626 137.634 81.1626 138.062 80.9869C142.603 79.0838 146.639 83.0171 146.675 83.0596C146.794 83.1868 146.948 83.2656 147.103 83.2899Z" fill="#3A222B"/>
<path d="M112.561 74.581C112.74 74.6476 112.936 74.6476 113.126 74.5749C113.34 74.4901 118.428 72.5931 121.84 76.1628C122.155 76.4961 122.678 76.5022 123.005 76.181C123.332 75.8597 123.338 75.3264 123.023 74.9931C118.85 70.6295 112.799 72.9083 112.544 73.0052C112.122 73.1689 111.908 73.6537 112.068 74.084C112.157 74.3264 112.341 74.5022 112.561 74.581Z" fill="#3A222B"/>
<path d="M123.736 107.441C127.927 107.441 131.113 104.95 131.161 104.914C131.517 104.629 131.583 104.102 131.303 103.738C131.024 103.368 130.507 103.308 130.15 103.593C129.918 103.774 124.438 108.017 118.755 104.199C113.096 100.399 113.584 96.8897 113.608 96.7442C113.679 96.2897 113.382 95.8594 112.942 95.7806C112.508 95.6957 112.074 95.9927 111.991 96.4472C111.955 96.6351 111.206 101.138 117.852 105.605C119.885 106.968 121.906 107.441 123.736 107.441Z" fill="#3A222B"/>
<path d="M157.553 70.0721C157.684 74.0054 155.752 81.3326 151.739 84.7932C152.786 80.5629 153.178 77.7023 153.178 77.7023C154.135 72.0357 153.327 66.4782 151.092 61.5449H151.151C153.481 62.4964 154.908 63.4479 155.835 64.7146C157.089 66.4176 157.458 68.6236 157.553 70.0721Z" fill="#61636A"/>
<path d="M89.1413 48.1266C89.278 48.1508 89.4207 48.1387 89.5574 48.0902C98.6342 44.7569 109.102 42.2539 119.819 40.8479C131.327 39.3449 142.77 39.1388 152.922 40.26C153.374 40.3085 153.778 39.9752 153.826 39.5206C153.873 39.06 153.588 38.6358 153.101 38.5994C142.823 37.4661 131.244 37.6661 119.611 39.1934C108.775 40.6115 98.1884 43.1448 88.9987 46.5206C88.5707 46.6781 88.3508 47.1569 88.5053 47.5933C88.6123 47.8781 88.8619 48.0781 89.1413 48.1266Z" fill="#3B3B3B"/>
<path d="M115.468 119.817C117.959 120.253 120.277 120.326 122.464 120.138C122.435 122.659 122.589 124.811 123.255 126.005C123.273 126.035 104.079 128.392 97.9447 108.084L97.9506 108.053C101.559 113.835 107.075 118.338 115.468 119.817Z" fill="#3A222B"/>
<path d="M88.3864 65.0539C88.6539 64.8903 90.6214 63.6903 93.9145 62.1994C93.9086 62.2115 93.9086 62.2297 93.9026 62.2418C93.9086 62.2237 93.9264 62.2055 93.9323 62.1934C100.364 59.2782 111.818 55.2843 125.46 55.8055C125.27 56.3692 119.367 72.8235 91.7924 74.1205C91.5131 74.0478 91.2277 73.9811 90.9305 73.9811C89.6228 73.9811 88.4399 74.7508 87.5007 75.975C87.2451 71.5932 87.6434 68.0175 88.3864 65.0539Z" fill="#61636A"/>
<path d="M183.897 201.598L174.084 215.919C174.084 215.919 177.716 201.828 181.894 198.592L183.897 201.598Z" fill="#3A222B"/>
</g>
<g clip-path="url(#clip2_326_5528)">
<path d="M386.423 183.313C386.423 183.313 426.141 230.254 440 259.227C440 259.227 423.336 296.952 369.323 327.598C369.323 327.598 366.922 327.053 363.258 324.33C357.542 320.086 363.877 316.976 365.128 316.133C378.831 306.903 402.774 267.143 403.468 263.691C404.162 260.24 373.456 229.299 364.128 217.857C354.796 206.419 371.919 177.419 386.423 183.313Z" fill="#FFB27D"/>
<path d="M266.402 196.392C266.402 196.392 247.694 266.107 236.568 270.721C225.437 275.333 178.59 287.76 178.59 287.76L179.991 297.776C179.991 297.776 235.699 300.015 255.143 288.732C274.588 277.449 288.81 243.673 288.81 243.673L266.402 196.392Z" fill="#FFB27D"/>
<path d="M320.371 114.281C320.371 114.281 320.628 120.07 317.293 121.201C313.954 122.332 320.733 134.82 320.198 143.258C319.668 151.691 316.078 155.078 316.078 155.078C316.078 155.078 317.801 150.438 316.837 147.569C316.837 147.569 316.99 153.537 312.801 156.548C308.613 159.559 309.736 162.161 309.736 162.161C309.736 162.161 300.265 159.211 300.001 151.827C300.001 151.827 299.594 155.166 299.923 156.548C299.923 156.548 291.744 150.164 291.356 142.807C290.965 135.45 297.792 129.242 300.903 129.13C304.014 129.018 310.951 122.668 310.766 120.27C310.577 117.861 320.371 114.281 320.371 114.281Z" fill="#61636A"/>
<path d="M371.98 126.19C377.491 117.488 364.547 98.51 343.068 83.8017C321.589 69.0934 299.71 64.2245 294.199 72.9268C288.688 81.629 301.633 100.607 323.111 115.315C344.59 130.024 366.469 134.893 371.98 126.19Z" fill="#3B3B3B"/>
<path d="M342.194 383.028C336.237 415.855 328.566 460.517 322.648 495.454C321.948 499.58 321.27 503.566 320.625 507.38C320.479 508.261 320.332 509.138 320.185 509.998H261.019C260.935 509.121 260.856 508.247 260.781 507.38C258.137 477.625 258.495 451.328 260.146 429.478C260.781 421.01 261.619 413.203 262.547 406.121C266.439 364.304 267.748 346.583 268.143 340.723L268.227 339.433C268.231 339.355 268.237 339.28 268.24 339.216L268.253 339.02C268.263 338.901 268.27 338.796 268.273 338.705L268.286 338.447C268.289 338.359 268.296 338.322 268.296 338.322L288.464 344.561L298.33 347.612L300.656 355.294L305.307 370.658L339.074 381.988L342.194 383.028Z" fill="#3C3C3C"/>
<path d="M380.997 391.296C379.977 408.353 378.296 468.497 376.42 507.38C376.378 508.268 376.336 509.138 376.293 509.999H314.954C314.766 509.131 314.577 508.258 314.388 507.38C307.877 476.931 302.545 442.738 298.724 414.988C298.053 415.019 291.05 365.425 273.501 343.562C273.341 343.365 273.321 343.21 273.416 343.091C274.286 341.929 285.422 343.938 285.422 343.938C286.366 344.199 287.379 344.405 288.458 344.558C296.881 345.757 309.108 343.823 321.241 340.883C321.241 340.883 321.241 340.883 321.244 340.883C324.524 340.087 327.788 339.22 330.976 338.319C339.96 335.782 348.278 332.998 354.21 330.901C355.682 330.383 357.004 329.902 358.157 329.482C359.089 329.14 359.91 328.835 360.597 328.577C360.6 328.577 360.6 328.577 360.6 328.577C362.255 327.958 363.177 327.595 363.177 327.595C363.177 327.595 363.594 327.975 364.3 328.76C366.655 331.372 372.232 338.451 376.345 350.803C379.668 360.744 382.029 374.103 380.997 391.296Z" fill="#202020"/>
<path d="M306.294 73.9244L344.901 134.841C344.901 134.841 349.314 125.848 354.216 129.073C361.864 134.099 378.296 116.896 374.87 92.6108C374.645 91.0223 374.375 89.515 374.078 88.0789C366.375 76.5392 357.822 63.6887 351.682 54.6554C333.953 43.5188 306.294 73.9244 306.294 73.9244Z" fill="#61636A"/>
<path d="M289.327 196.977C294.731 202.125 301.747 206.731 310.841 210.311C344.933 223.748 362.47 194.717 370.313 174.199C365.887 170.663 361.454 169.396 358.887 168.701C356.884 168.163 354.786 167.682 352.9 167.292C351.907 167.086 351.021 166.493 350.461 165.616C347.21 160.512 343.92 147.583 345.103 129.405L343.386 129.632L314.612 133.605C314.612 133.605 314.684 142.953 314.173 151.709C313.951 155.468 313.616 159.119 313.124 161.883C312.652 164.525 310.557 166.52 307.984 166.781C307.984 166.781 307.981 166.791 307.968 166.805C307.509 167.391 297.662 180.014 289.327 196.977Z" fill="#FFB27D"/>
<path d="M314.609 133.611C314.609 133.611 314.687 142.953 314.17 151.715C330.1 152.301 339.429 137.774 343.383 129.638L314.609 133.611Z" fill="#ED985F"/>
<path d="M308.792 141.554C308.792 141.554 346.376 144.69 347.894 120.32C349.412 95.9506 355.285 79.9434 331.351 76.9119C307.417 73.8805 302.173 82.863 299.763 90.87C297.353 98.877 299.053 140.111 308.792 141.554Z" fill="#FFB27D"/>
<path d="M301.711 77.393C307.974 70.4461 312.271 72.3463 314.599 74.7138C335.885 64.3189 348.07 82.5786 348.07 82.5786C349.516 100.232 361.03 111.05 361.03 111.05C361.03 111.05 353.904 115.003 338.354 109.726C333.605 108.114 329.511 104.259 326.11 99.69C331.827 111.267 340.041 119.877 340.041 119.877C321.713 109.55 315.801 81.7352 315.222 78.7986C312.792 80.7902 307.981 85.1494 306.32 89.627C304.066 95.7102 302.437 108.429 298.884 107.758C298.887 107.758 292.317 87.8116 301.711 77.393Z" fill="#61636A"/>
<path d="M375.674 104.601C375.674 104.601 393.152 68.4241 368.727 54.1205C344.301 39.8204 326.423 45.4361 312.987 62.9269L375.674 104.601Z" fill="#3B3B3B"/>
<path d="M376.671 239.25C378.01 240.7 378.847 241.516 378.847 241.516C407.318 237.831 408.653 207.429 408.653 207.429C408.653 207.429 386.368 176.871 365.564 170.147C360.499 168.512 352.904 167.292 352.904 167.292C346.393 172.905 338.895 181.132 331.843 187.821C323.713 195.533 309.717 198.152 304.541 184.475C302.467 178.994 307.453 167.624 307.965 166.804C307.978 166.784 307.981 166.777 307.981 166.777C307.447 166.815 306.926 166.855 306.417 166.889C303.867 167.103 301.571 167.424 299.483 167.644C289.33 168.705 275.305 175.702 246.968 213.001C246.968 213.001 262.28 232.666 277.836 233.811C277.211 264.965 280.429 315.71 280.429 315.71C273.634 329.607 374.583 361.794 378.941 348.537C385.475 338.169 378.954 318.318 373.306 303.1C371.922 299.384 371.616 295.428 370.385 292.552C369.6 290.71 368.968 288.81 368.505 286.872C367.333 282.012 367.206 276.911 368.18 271.952C370.551 259.911 373.795 248.659 376.671 239.25Z" fill="#FFE465"/>
<path d="M377.58 99.9712C376.844 99.1854 376.088 98.3962 375.31 97.6002L375.306 97.5968C367.769 89.9353 358.161 82.1078 347.132 74.9544C338.256 69.1997 329.416 64.4951 321.12 60.9658H321.117C319.475 60.2613 317.857 59.611 316.261 59.0047C297.242 51.7699 281.914 51.2212 277.276 58.9539C272.38 67.1099 280.663 82.2975 296.887 97.7018L296.89 97.7052C296.877 97.5697 296.861 97.4376 296.848 97.3089C296.835 97.1768 296.828 97.0414 296.815 96.9059C296.802 96.7535 296.789 96.5943 296.776 96.4385C296.767 96.3267 296.76 96.2115 296.75 96.093C296.74 95.8999 296.731 95.7102 296.718 95.5138C296.705 95.2699 296.692 95.0261 296.685 94.7754C296.685 94.7483 296.682 94.7178 296.682 94.6874C296.672 94.5078 296.669 94.3249 296.666 94.142V93.9727C296.662 93.8541 296.662 93.7356 296.662 93.6137C296.659 93.1869 296.662 92.75 296.672 92.3164C296.672 92.164 296.675 92.0048 296.685 91.8524C296.688 91.7643 296.695 91.6763 296.695 91.5916C296.705 91.4459 296.708 91.3037 296.721 91.1648C296.734 90.8972 296.75 90.6364 296.773 90.3756C296.793 90.1148 296.819 89.8506 296.845 89.5864C296.845 89.5729 296.848 89.556 296.848 89.5424C296.858 89.4476 296.867 89.3494 296.877 89.2579C296.887 89.1969 296.89 89.136 296.897 89.0784C296.923 88.8955 296.942 88.7126 296.968 88.5297C297.008 88.2282 297.053 87.9302 297.109 87.6355C297.118 87.5881 297.125 87.5339 297.135 87.4865C297.193 87.1342 297.262 86.782 297.34 86.4331C297.372 86.257 297.415 86.0842 297.457 85.9149C297.46 85.8946 297.467 85.8708 297.47 85.8505C295.737 82.0536 295.421 78.7682 296.835 76.4108C298.473 73.6774 302.199 72.5732 307.258 72.9187C307.261 72.9187 307.261 72.9187 307.268 72.9187C307.404 72.9289 307.544 72.9391 307.688 72.9526H307.691C309.561 73.1016 311.6 73.4403 313.779 73.9687H313.782C314.293 74.0907 314.811 74.2227 315.339 74.365C317.254 74.89 319.264 75.5403 321.345 76.3193H321.371C327.596 78.653 334.439 82.1248 341.324 86.5923C344.184 88.4484 346.891 90.3756 349.422 92.3367H349.425C349.676 92.5332 349.93 92.7296 350.177 92.9261C361.877 102.156 369.606 112.07 370.492 118.918C370.727 120.741 370.483 122.346 369.688 123.664C369.626 123.769 369.557 123.87 369.483 123.968C369.473 123.985 369.466 123.999 369.456 124.013C368.939 124.751 368.255 125.354 367.421 125.835C367.418 125.838 367.418 125.838 367.411 125.838C367.297 125.909 367.183 125.97 367.066 126.024C367.062 126.021 367.062 126.024 367.062 126.024C366.206 126.461 365.203 126.776 364.082 126.966C364.079 126.966 364.079 126.966 364.079 126.966C364.079 126.966 364.079 126.966 364.076 126.966C363.968 127.057 363.857 127.146 363.747 127.234C363.669 127.298 363.584 127.366 363.499 127.427C363.418 127.488 363.34 127.549 363.255 127.61C363.229 127.627 363.206 127.643 363.18 127.667C363.037 127.762 362.9 127.864 362.76 127.958C362.542 128.107 362.32 128.246 362.102 128.382C361.994 128.446 361.884 128.514 361.776 128.575C361.665 128.636 361.558 128.697 361.447 128.754C361.301 128.832 361.157 128.907 361.011 128.978C360.955 129.008 360.903 129.036 360.848 129.056C360.792 129.083 360.74 129.103 360.685 129.13C360.682 129.13 360.682 129.134 360.675 129.134C360.662 129.137 360.649 129.147 360.636 129.151C360.568 129.181 360.503 129.208 360.434 129.239C360.333 129.279 360.235 129.323 360.138 129.357C360.011 129.405 359.89 129.452 359.77 129.493C359.652 129.533 359.535 129.571 359.421 129.601C359.411 129.605 359.402 129.611 359.389 129.615C359.291 129.642 359.2 129.666 359.102 129.689C359.069 129.703 359.034 129.71 358.998 129.72C358.91 129.74 358.822 129.764 358.731 129.781C358.62 129.801 358.512 129.825 358.398 129.842C358.33 129.855 358.265 129.862 358.197 129.872C358.115 129.886 358.037 129.892 357.959 129.903C357.854 129.916 357.754 129.923 357.649 129.93C357.607 129.933 357.565 129.933 357.522 129.933H357.473C357.447 129.936 357.418 129.936 357.392 129.936H357.363C357.324 129.94 357.291 129.94 357.252 129.94C356.978 129.94 356.705 129.923 356.441 129.889C356.177 129.855 355.916 129.798 355.666 129.726C355.539 129.686 355.415 129.649 355.291 129.605C355.2 129.571 355.105 129.53 355.018 129.489C354.949 129.462 354.884 129.432 354.816 129.398C354.76 129.371 354.708 129.347 354.653 129.317C354.607 129.296 354.555 129.269 354.509 129.239C354.412 129.188 354.32 129.13 354.229 129.069C354.037 128.944 353.842 128.832 353.653 128.748C353.591 128.717 353.526 128.69 353.467 128.666C353.441 128.656 353.418 128.646 353.392 128.636C353.301 128.595 353.207 128.565 353.115 128.541C352.751 128.426 352.389 128.375 352.031 128.375C352.027 128.375 352.027 128.375 352.021 128.375H351.979C351.966 128.375 351.953 128.375 351.94 128.378H351.887C351.842 128.378 351.799 128.382 351.754 128.389C351.725 128.389 351.695 128.389 351.666 128.392C351.584 128.402 351.51 128.409 351.435 128.422C351.425 128.422 351.418 128.426 351.409 128.426C351.376 128.429 351.337 128.439 351.304 128.446C351.242 128.456 351.184 128.466 351.125 128.487C351.067 128.5 351.008 128.517 350.946 128.534C350.874 128.551 350.809 128.575 350.738 128.599C350.692 128.616 350.646 128.632 350.601 128.649C350.532 128.67 350.461 128.7 350.396 128.734C350.392 128.734 350.392 128.734 350.392 128.734C350.337 128.754 350.288 128.778 350.233 128.805C350.184 128.832 350.132 128.853 350.086 128.88C350.028 128.907 349.972 128.941 349.914 128.971L349.751 129.063C349.692 129.096 349.637 129.134 349.581 129.168C349.526 129.201 349.477 129.239 349.422 129.273C349.366 129.306 349.314 129.344 349.259 129.381C349.204 129.415 349.148 129.456 349.099 129.5C348.995 129.574 348.891 129.655 348.79 129.743C348.734 129.784 348.686 129.825 348.64 129.869C348.591 129.913 348.539 129.957 348.49 130.004C348.389 130.092 348.291 130.184 348.197 130.275C348.099 130.363 348.005 130.458 347.91 130.56C347.865 130.607 347.819 130.655 347.774 130.709C347.728 130.756 347.682 130.804 347.64 130.854C347.585 130.905 347.539 130.959 347.493 131.01H347.497C349.334 131.799 351.145 132.531 352.926 133.202C358.633 135.352 363.998 136.904 368.841 137.811C380.062 139.911 388.462 138.546 391.69 133.168C395.973 125.994 390.087 113.391 377.58 99.9712Z" fill="#151816"/>
<path d="M355.04 305.112C369.58 309.955 362.792 301.667 374.023 302.51C372.639 298.795 371.616 295.431 370.382 292.559C369.597 290.717 368.965 288.816 368.502 286.879C367.33 282.019 367.203 276.918 368.176 271.959C370.772 258.804 373.616 249.147 376.671 239.257C373.46 230.478 359.747 244.869 359.747 244.869C359.747 244.869 347.051 258.739 350.373 282.327C353.467 304.299 342.494 300.929 355.04 305.112Z" fill="#FFE465"/>
<path d="M365.561 170.151C365.561 170.151 342.083 185.752 336.08 218.643L328.98 216.299C328.98 216.299 331.97 192.6 359.128 168.484C359.128 168.484 361.174 168.904 361.861 169.084C362.783 169.321 365.561 170.151 365.561 170.151Z" fill="black"/>
<path d="M282.64 219.477L290.073 219.985C288.585 191.466 302.346 171.997 306.417 166.893C303.867 167.106 301.555 167.363 299.483 167.648C284.393 191.605 282.64 219.477 282.64 219.477Z" fill="black"/>
<path d="M335.367 236.89C335.826 234.857 340.377 215.114 340.377 215.114C340.377 215.114 341.425 208.94 330.993 208.33C320.56 207.72 283.552 205.691 283.552 205.691C283.552 205.691 278.51 208.858 278.435 215.351C278.36 221.844 273.325 259.004 273.325 259.004L268.143 340.727L381 391.295C381 391.295 388.739 349.99 380.075 321.204C375.023 304.414 368.505 286.883 368.505 286.883C368.505 286.883 328.345 267.918 335.367 236.89Z" fill="black"/>
<path d="M336.374 215.775C336.895 214.068 335.986 212.246 334.344 211.704C332.703 211.162 330.95 212.107 330.429 213.814C329.908 215.521 330.817 217.343 332.458 217.885C334.097 218.424 335.852 217.482 336.374 215.775Z" fill="#FFDB34"/>
<path d="M335.839 215.599C336.361 213.892 335.452 212.069 333.813 211.527C332.172 210.985 330.419 211.93 329.898 213.637C329.377 215.345 330.286 217.167 331.928 217.709C333.566 218.247 335.318 217.306 335.839 215.599Z" fill="#FFDB34"/>
<path d="M334.8 214.613C334.8 214.352 334.598 214.142 334.348 214.142C334.097 214.142 333.895 214.352 333.895 214.613C333.895 214.874 334.097 215.084 334.348 215.084C334.598 215.084 334.8 214.874 334.8 214.613Z" fill="#2B478B"/>
<path d="M331.84 214.62C331.84 214.359 331.638 214.149 331.387 214.149C331.136 214.149 330.934 214.359 330.934 214.62C330.934 214.881 331.136 215.091 331.387 215.091C331.638 215.091 331.84 214.877 331.84 214.62Z" fill="#2B478B"/>
<path d="M290.483 211.656C291.005 209.949 290.096 208.127 288.454 207.585C286.813 207.043 285.06 207.988 284.539 209.695C284.018 211.402 284.927 213.224 286.568 213.766C288.21 214.305 289.962 213.363 290.483 211.656Z" fill="#FFDB34"/>
<path d="M289.949 211.48C290.47 209.773 289.562 207.951 287.92 207.409C286.278 206.867 284.526 207.812 284.005 209.519C283.484 211.226 284.393 213.048 286.034 213.59C287.676 214.129 289.428 213.187 289.949 211.48Z" fill="#FFDB34"/>
<path d="M288.91 210.494C288.91 210.233 288.708 210.023 288.457 210.023C288.207 210.023 288.005 210.233 288.005 210.494C288.005 210.755 288.207 210.965 288.457 210.965C288.708 210.965 288.91 210.755 288.91 210.494Z" fill="#2B478B"/>
<path d="M285.953 210.501C285.953 210.24 285.751 210.03 285.5 210.03C285.249 210.03 285.047 210.24 285.047 210.501C285.047 210.762 285.249 210.972 285.5 210.972C285.751 210.972 285.953 210.758 285.953 210.501Z" fill="#2B478B"/>
<path d="M370.482 118.925C370.482 118.925 370.74 124.71 367.404 125.845C364.066 126.976 370.844 139.464 370.313 147.902C369.782 156.335 366.193 159.722 366.193 159.722C366.193 159.722 367.916 155.082 366.952 152.213C366.952 152.213 367.105 158.181 362.916 161.192C358.727 164.204 359.851 166.805 359.851 166.805C359.851 166.805 350.379 163.855 350.115 156.467C350.115 156.467 349.708 159.807 350.037 161.189C350.037 161.189 341.859 154.804 341.471 147.448C341.08 140.091 347.907 133.883 351.018 133.771C354.128 133.659 361.066 127.308 360.88 124.91C360.688 122.505 370.482 118.925 370.482 118.925Z" fill="#61636A"/>
<path d="M320.378 127.938C320.378 127.938 314.779 131.467 310.792 131.058C306.844 130.651 304.694 125.699 304.694 125.699C304.694 125.699 312.352 124.524 320.378 127.938Z" fill="#FFF2E9"/>
<path d="M355.894 338.319H280.464C277.308 338.319 273.706 335.656 272.426 332.374L253.437 283.767C252.153 280.484 253.674 277.822 256.83 277.822H332.26C335.419 277.822 339.018 280.484 340.298 283.767L359.288 332.374C360.571 335.66 359.053 338.319 355.894 338.319Z" fill="#FFE465"/>
<path d="M351.392 338.319H275.963C272.807 338.319 269.204 335.656 267.924 332.374L248.935 283.767C247.652 280.484 249.173 277.822 252.329 277.822H327.758C330.915 277.822 334.517 280.484 335.797 283.767L354.786 332.374C356.07 335.66 354.552 338.319 351.392 338.319Z" fill="#FFDB34"/>
<path d="M256.469 281.548C257.905 281.548 259.557 282.771 260.14 284.264C260.723 285.758 260.026 286.981 258.589 286.981C257.153 286.981 255.502 285.758 254.919 284.264C254.336 282.771 255.033 281.548 256.469 281.548Z" fill="#130F26"/>
<path d="M264.762 282.679C265.599 282.679 266.563 283.39 266.905 284.264C267.244 285.135 266.836 285.849 265.999 285.849C265.162 285.849 264.198 285.135 263.856 284.264C263.514 283.39 263.921 282.679 264.762 282.679Z" fill="#130F26"/>
<path d="M294.268 306.531C293.011 303.31 294.5 300.695 297.6 300.695C300.698 300.695 304.232 303.306 305.489 306.531C306.746 309.752 305.258 312.363 302.157 312.363C299.06 312.363 295.529 309.752 294.268 306.531Z" fill="#FFE465"/>
<path d="M364.877 316.719C364.877 316.719 354.506 310.568 352.005 307.727C350.392 305.891 350.295 308.252 350.399 308.916C350.607 310.243 350.796 312.878 353.75 315.388C357.998 318.999 364.877 316.719 364.877 316.719Z" fill="#FFB27D"/>
<path d="M364.877 316.719C364.877 316.719 346.168 310.877 341.859 311.385C337.549 311.893 327.71 315.08 326.918 315.913C326.127 316.743 329.514 317.624 332.09 316.838C335.393 315.835 340.595 316.963 340.595 316.963C340.595 316.963 330.107 319.327 327.482 320.53C327.221 320.648 327.172 321.021 327.397 321.207C328.025 321.726 329.641 322.051 331.96 321.715C335.292 321.234 341.136 321.319 341.136 321.319L329.214 324.015C329.064 324.049 328.954 324.185 328.96 324.344C328.98 324.933 329.931 325.563 332.719 325.695C334.865 325.797 342.135 324.679 342.135 324.679L335.66 328.232C335.66 328.232 337.23 329.401 340.536 328.266C342.803 327.487 349.572 325.726 351.132 326.068C352.695 326.41 360.49 329.272 364.17 328.784C367.766 328.307 369.326 327.599 369.326 327.599L364.877 316.719Z" fill="#FFB27D"/>
<path d="M184.847 288.394C184.847 288.394 175.46 277.965 172.01 276.722C168.561 275.479 156.249 273.318 156.249 273.318C156.249 273.318 156.298 276.38 161.809 278.497C167.32 280.614 168.473 290.548 171.734 293.359C174.991 296.17 183.606 298.606 183.606 298.606L184.847 288.394Z" fill="#FFB27D"/>
<path d="M180.925 297.762C180.925 297.762 171.779 297.346 168.809 295.405C165.838 293.464 160.998 290.927 161.933 289.383C162.868 287.838 172.952 289.003 172.952 289.003L180.925 297.762Z" fill="#FFB27D"/>
<path d="M171.271 278.541C170.792 278.317 158.597 269.839 158.597 269.839C158.597 269.839 157.571 273.856 159.366 274.622C161.161 275.384 171.271 278.541 171.271 278.541Z" fill="#FFB27D"/>
<path d="M416.874 290.991C405.933 302.48 390.501 315.581 369.326 327.595C369.326 327.595 366.926 327.05 363.261 324.327C357.548 320.083 363.877 316.973 365.131 316.133C371.339 311.95 379.658 301.494 386.957 290.991H416.874Z" fill="#FFB27D"/>
<path d="M322.235 107.127C321.914 108.919 322.834 110.568 324.281 110.81C325.728 111.053 327.162 109.796 327.484 108.004C327.806 106.213 326.886 104.564 325.439 104.321C323.991 104.079 322.557 105.336 322.235 107.127Z" fill="#3A222B"/>
<path d="M334.389 104.258C334.665 104.301 334.968 104.22 335.18 104.009C335.521 103.667 335.514 103.125 335.167 102.789C334.955 102.59 329.905 97.9244 323.924 100.301C323.467 100.481 323.255 100.985 323.441 101.427C323.628 101.869 324.142 102.074 324.605 101.893C329.52 99.94 333.887 103.978 333.926 104.021C334.054 104.152 334.221 104.233 334.389 104.258Z" fill="#3A222B"/>
<path d="M311.544 98.4284C311.821 98.472 312.123 98.3911 312.336 98.1796C312.676 97.8374 312.67 97.2962 312.323 96.9602C312.11 96.7612 307.061 92.0953 301.079 94.4718C300.622 94.6522 300.41 95.1561 300.597 95.5978C300.783 96.0395 301.298 96.2448 301.761 96.0644C306.675 94.1109 311.043 98.1485 311.081 98.192C311.21 98.3227 311.377 98.4035 311.544 98.4284Z" fill="#3A222B"/>
<path d="M302.998 102.464C302.676 104.255 303.596 105.904 305.043 106.147C306.491 106.389 307.925 105.133 308.247 103.341C308.568 101.549 307.648 99.9005 306.201 99.6579C304.754 99.4153 303.32 100.672 302.998 102.464Z" fill="#3A222B"/>
<path d="M312.089 119.945C312.064 119.933 312.045 119.914 312.02 119.895C310.724 118.881 310.096 117.761 310.151 116.579C310.236 114.8 311.85 113.805 312.035 113.699C312.378 113.5 312.787 113.68 312.951 114.11C313.116 114.539 312.966 115.049 312.623 115.254C312.279 115.46 311.556 116.082 311.531 116.685C311.506 117.177 311.945 117.799 312.757 118.433C313.081 118.688 313.176 119.217 312.976 119.622C312.782 120.001 312.398 120.132 312.089 119.945Z" fill="#3A222B"/>
</g>
</g>
<defs>
<linearGradient id="paint0_linear_326_5528" x1="168.5" y1="89" x2="168.5" y2="614" gradientUnits="userSpaceOnUse">
<stop stop-color="#A5AAAE"/>
<stop offset="1" stop-color="#DEDEDE"/>
</linearGradient>
<clipPath id="clip0_326_5528">
<rect width="414" height="508" fill="white"/>
</clipPath>
<clipPath id="clip1_326_5528">
<rect width="220" height="569" fill="white" transform="matrix(-1 0 0 1 221 -14)"/>
</clipPath>
<clipPath id="clip2_326_5528">
<rect width="309" height="464" fill="white" transform="translate(131 46)"/>
</clipPath>
</defs>
</svg>
